<svg width="37" height="38" viewBox="0 0 37 38" fill="none" xmlns="http://www.w3.org/2000/svg">
<g id="ion:logo-instagram">
<path id="Vector" d="M25.2445 5.67033C27.0319 5.67567 28.7445 6.38804 30.0083 7.65187C31.2721 8.9157 31.9845 10.6283 31.9898 12.4156V25.9047C31.9845 27.692 31.2721 29.4046 30.0083 30.6684C28.7445 31.9323 27.0319 32.6446 25.2445 32.65H11.7554C9.96813 32.6446 8.25555 31.9323 6.99172 30.6684C5.72789 29.4046 5.01551 27.692 5.01018 25.9047V12.4156C5.01551 10.6283 5.72789 8.9157 6.99172 7.65187C8.25555 6.38804 9.96813 5.67567 11.7554 5.67033H25.2445ZM25.2445 2.97266H11.7554C6.56172 2.97266 2.3125 7.22187 2.3125 12.4156V25.9047C2.3125 31.0984 6.56172 35.3477 11.7554 35.3477H25.2445C30.4383 35.3477 34.6875 31.0984 34.6875 25.9047V12.4156C34.6875 7.22187 30.4383 2.97266 25.2445 2.97266Z" fill="white"/>
<path id="Vector_2" d="M27.2676 12.4141C26.8674 12.4141 26.4762 12.2954 26.1434 12.0731C25.8107 11.8507 25.5513 11.5347 25.3982 11.165C25.245 10.7952 25.2049 10.3884 25.283 9.99587C25.3611 9.60336 25.5538 9.24282 25.8368 8.95984C26.1198 8.67686 26.4803 8.48414 26.8728 8.40607C27.2653 8.32799 27.6722 8.36806 28.0419 8.52121C28.4117 8.67436 28.7277 8.93371 28.95 9.26646C29.1723 9.59922 29.291 9.99043 29.291 10.3906C29.2916 10.6565 29.2396 10.9199 29.1382 11.1656C29.0367 11.4114 28.8876 11.6347 28.6996 11.8227C28.5116 12.0107 28.2883 12.1597 28.0426 12.2612C27.7968 12.3627 27.5335 12.4146 27.2676 12.4141Z" fill="white"/>
<path id="Vector_3" d="M18.5 13.7641C19.5672 13.7641 20.6105 14.0806 21.4979 14.6735C22.3853 15.2664 23.0769 16.1092 23.4853 17.0952C23.8937 18.0812 24.0006 19.1661 23.7924 20.2129C23.5842 21.2596 23.0703 22.2211 22.3156 22.9758C21.5609 23.7304 20.5995 24.2443 19.5527 24.4525C18.506 24.6608 17.421 24.5539 16.435 24.1455C15.449 23.7371 14.6063 23.0454 14.0133 22.1581C13.4204 21.2707 13.1039 20.2274 13.1039 19.1602C13.1055 17.7295 13.6745 16.3579 14.6861 15.3462C15.6977 14.3346 17.0693 13.7656 18.5 13.7641ZM18.5 11.0664C16.8992 11.0664 15.3344 11.5411 14.0034 12.4304C12.6723 13.3198 11.635 14.5839 11.0224 16.0628C10.4098 17.5418 10.2495 19.1691 10.5618 20.7392C10.8741 22.3092 11.6449 23.7514 12.7769 24.8833C13.9088 26.0152 15.351 26.7861 16.921 27.0984C18.491 27.4107 20.1184 27.2504 21.5973 26.6378C23.0763 26.0252 24.3404 24.9878 25.2297 23.6568C26.1191 22.3258 26.5938 20.761 26.5938 19.1602C26.5938 17.0136 25.741 14.9549 24.2232 13.437C22.7053 11.9191 20.6466 11.0664 18.5 11.0664Z" fill="white"/>
</g>
</svg>
