<svg width="55" height="74" viewBox="0 0 55 74" fill="none" xmlns="http://www.w3.org/2000/svg">
<g id="mdi:alarm-panel-outline">
<path id="Vector" d="M21.125 36.6797H14.375V30.5964H21.125V36.6797ZM31.25 30.5964H24.5V36.6797H31.25V30.5964ZM41.375 30.5964H34.625V36.6797H41.375V30.5964ZM41.375 18.4297H14.375V27.5547H41.375V18.4297ZM45.875 15.388H9.875V57.9714H45.875V15.388ZM45.875 9.30469C48.35 9.30469 50.375 12.0422 50.375 15.388V57.9714C50.375 61.3172 48.35 64.0547 45.875 64.0547H9.875C7.4 64.0547 5.375 61.3172 5.375 57.9714V15.388C5.375 12.0422 7.4 9.30469 9.875 9.30469H45.875ZM21.125 39.7214H14.375V45.8047H21.125V39.7214ZM31.25 39.7214H24.5V45.8047H31.25V39.7214ZM41.375 39.7214H34.625V45.8047H41.375V39.7214ZM21.125 48.8464H14.375V54.9297H21.125V48.8464ZM31.25 48.8464H24.5V54.9297H31.25V48.8464ZM41.375 48.8464H34.625V54.9297H41.375V48.8464Z" fill="#F2F2F2"/>
</g>
</svg>
