<svg width="70" height="70" viewBox="0 0 70 70" fill="none" xmlns="http://www.w3.org/2000/svg">
<g id="mdi:puzzle-outline">
<path id="Vector" d="M64.125 38.9922C64.125 44.0522 60.3875 48.2497 55.5 48.9397V57.6797C55.5 59.2047 54.8942 60.6672 53.8159 61.7456C52.7375 62.8239 51.275 63.4297 49.75 63.4297H38.825V62.5672C38.825 60.5084 38.0072 58.534 36.5514 57.0783C35.0957 55.6225 33.1212 54.8047 31.0625 54.8047C26.75 54.8047 23.3 58.2834 23.3 62.5672V63.4297H12.375C10.85 63.4297 9.38747 62.8239 8.30914 61.7456C7.2308 60.6672 6.625 59.2047 6.625 57.6797V46.7547H7.4875C11.7712 46.7547 15.25 43.3047 15.25 38.9922C15.25 34.6797 11.7712 31.2297 7.4875 31.2297H6.625V20.3047C6.625 18.7797 7.2308 17.3172 8.30914 16.2388C9.38747 15.1605 10.85 14.5547 12.375 14.5547H21.115C21.805 9.66719 26.0025 5.92969 31.0625 5.92969C36.1225 5.92969 40.32 9.66719 41.01 14.5547H49.75C51.275 14.5547 52.7375 15.1605 53.8159 16.2388C54.8942 17.3172 55.5 18.7797 55.5 20.3047V29.0447C60.3875 29.7347 64.125 33.9322 64.125 38.9922ZM49.75 43.3047H54.0625C55.2062 43.3047 56.3031 42.8503 57.1119 42.0416C57.9206 41.2328 58.375 40.1359 58.375 38.9922C58.375 37.8484 57.9206 36.7515 57.1119 35.9428C56.3031 35.134 55.2062 34.6797 54.0625 34.6797H49.75V20.3047H35.375V15.9922C35.375 14.8484 34.9206 13.7515 34.1119 12.9428C33.3031 12.134 32.2062 11.6797 31.0625 11.6797C29.9188 11.6797 28.8219 12.134 28.0131 12.9428C27.2044 13.7515 26.75 14.8484 26.75 15.9922V20.3047H12.375V26.3997C17.435 28.3547 21 33.2422 21 38.9922C21 44.7422 17.4062 49.6297 12.375 51.5847V57.6797H18.47C19.4552 55.1404 21.1847 52.9581 23.4319 51.419C25.679 49.8798 28.3388 49.0557 31.0625 49.0547C36.8125 49.0547 41.7 52.6484 43.655 57.6797H49.75V43.3047Z" fill="#F2F2F2"/>
</g>
</svg>
