<svg width="72" height="71" viewBox="0 0 72 71" fill="none" xmlns="http://www.w3.org/2000/svg">
<g id="mdi:car">
<path id="Vector" d="M15.6667 32.2617L20.1042 19.1367H52.6458L57.0833 32.2617H15.6667ZM52.6458 46.8451C51.4689 46.8451 50.3402 46.3841 49.508 45.5636C48.6759 44.7432 48.2083 43.6304 48.2083 42.4701C48.2083 41.3097 48.6759 40.1969 49.508 39.3765C50.3402 38.556 51.4689 38.0951 52.6458 38.0951C53.8227 38.0951 54.9514 38.556 55.7836 39.3765C56.6158 40.1969 57.0833 41.3097 57.0833 42.4701C57.0833 43.6304 56.6158 44.7432 55.7836 45.5636C54.9514 46.3841 53.8227 46.8451 52.6458 46.8451ZM20.1042 46.8451C18.9273 46.8451 17.7986 46.3841 16.9664 45.5636C16.1342 44.7432 15.6667 43.6304 15.6667 42.4701C15.6667 41.3097 16.1342 40.1969 16.9664 39.3765C17.7986 38.556 18.9273 38.0951 20.1042 38.0951C21.2811 38.0951 22.4098 38.556 23.242 39.3765C24.0741 40.1969 24.5417 41.3097 24.5417 42.4701C24.5417 43.6304 24.0741 44.7432 23.242 45.5636C22.4098 46.3841 21.2811 46.8451 20.1042 46.8451ZM56.8467 17.6784C56.255 15.9867 54.5983 14.7617 52.6458 14.7617H20.1042C18.1517 14.7617 16.495 15.9867 15.9033 17.6784L9.75 35.1784V58.5117C9.75 59.2853 10.0617 60.0271 10.6165 60.5741C11.1713 61.1211 11.9237 61.4284 12.7083 61.4284H15.6667C16.4513 61.4284 17.2037 61.1211 17.7585 60.5741C18.3133 60.0271 18.625 59.2853 18.625 58.5117V55.5951H54.125V58.5117C54.125 59.2853 54.4367 60.0271 54.9915 60.5741C55.5463 61.1211 56.2987 61.4284 57.0833 61.4284H60.0417C60.8263 61.4284 61.5787 61.1211 62.1335 60.5741C62.6883 60.0271 63 59.2853 63 58.5117V35.1784L56.8467 17.6784Z" fill="#F2F2F2"/>
</g>
</svg>
