<svg width="66" height="65" viewBox="0 0 66 65" fill="none" xmlns="http://www.w3.org/2000/svg">
<g id="mdi:map-marker-multiple-outline">
<path id="Vector" d="M32.0208 24.1784C32.0208 22.4103 32.7342 20.7146 34.004 19.4643C35.2737 18.2141 36.9959 17.5117 38.7917 17.5117C41.7708 17.5117 44.2896 19.4051 45.2104 22.0184C45.4271 22.7117 45.5625 23.4317 45.5625 24.1784C45.5625 25.0539 45.3874 25.9208 45.0471 26.7296C44.7068 27.5384 44.2081 28.2734 43.5794 28.8924C42.9506 29.5115 42.2042 30.0026 41.3828 30.3376C40.5613 30.6726 39.6808 30.8451 38.7917 30.8451C35.8396 30.8451 33.375 29.0051 32.4 26.4184C32.1562 25.7251 32.0208 24.9517 32.0208 24.1784ZM14.4167 24.1784C14.4167 36.1784 28.175 52.6051 30.6667 55.6717L27.9583 58.8451C27.9583 58.8451 9 38.1784 9 24.1784C9 15.7251 14.7146 8.57839 22.5417 6.28505C17.5583 10.6851 14.4167 17.0584 14.4167 24.1784ZM38.7917 5.51172C49.2458 5.51172 57.75 13.8584 57.75 24.1784C57.75 38.1784 38.7917 58.8451 38.7917 58.8451C38.7917 58.8451 19.8333 38.1784 19.8333 24.1784C19.8333 13.8584 28.3375 5.51172 38.7917 5.51172ZM38.7917 10.8451C31.3167 10.8451 25.25 16.8184 25.25 24.1784C25.25 26.8451 25.25 32.1784 38.7917 50.0717C52.3333 32.1784 52.3333 26.8451 52.3333 24.1784C52.3333 16.8184 46.2667 10.8451 38.7917 10.8451Z" fill="#F2F2F2"/>
</g>
</svg>
